<?xml version="1.0" encoding="utf-8"?>
<!-- Generator: Adobe Illustrator 27.5.0, SVG Export Plug-In . SVG Version: 6.00 Build 0)  -->
<svg version="1.1" id="Layer_1" xmlns="http://www.w3.org/2000/svg" xmlns:xlink="http://www.w3.org/1999/xlink" x="0px" y="0px"
	 viewBox="0 0 432 288" style="enable-background:new 0 0 432 288;" xml:space="preserve">
<g>
	<g>
		<defs>
			<rect id="SVGID_1_" x="0" y="0" width="432" height="288"/>
		</defs>
		
			<linearGradient id="SVGID_00000098182061232218194250000009051317470985204152_" gradientUnits="userSpaceOnUse" x1="216" y1="190.7568" x2="216" y2="-236.0419">
			<stop  offset="0" style="stop-color:#C7C7C7"/>
			<stop  offset="0.0378" style="stop-color:#CFCFCF"/>
			<stop  offset="0.1638" style="stop-color:#E5E5E5"/>
			<stop  offset="0.2848" style="stop-color:#F2F2F2"/>
			<stop  offset="0.394" style="stop-color:#F7F7F7"/>
			<stop  offset="0.5306" style="stop-color:#F4F4F4"/>
			<stop  offset="1" style="stop-color:#ECECEC"/>
		</linearGradient>
		<use xlink:href="#SVGID_1_"  style="overflow:visible;fill:url(#SVGID_00000098182061232218194250000009051317470985204152_);"/>
		<clipPath id="SVGID_00000183249068180684460730000006784131179110614684_">
			<use xlink:href="#SVGID_1_"  style="overflow:visible;"/>
		</clipPath>
		
			<linearGradient id="SVGID_00000112603941031793463980000015955835742739945623_" gradientUnits="userSpaceOnUse" x1="642.0032" y1="-165.6229" x2="588.1855" y2="-32.5739" gradientTransform="matrix(0.88 0.4749 -0.4749 0.88 -509.4207 -88.875)">
			<stop  offset="0" style="stop-color:#FFFFFF"/>
			<stop  offset="0.221" style="stop-color:#F3F3F3"/>
			<stop  offset="0.6876" style="stop-color:#DEDEDE"/>
			<stop  offset="0.995" style="stop-color:#D6D6D6"/>
		</linearGradient>
		
			<path style="clip-path:url(#SVGID_00000183249068180684460730000006784131179110614684_);fill:url(#SVGID_00000112603941031793463980000015955835742739945623_);" d="
			M11.445-55.779C30.477-45.427,50.823-33.688,59.43-13.933c8.514,19.54,3.652,43.223,14.214,61.771
			c11.703,20.554,37.617,27.464,60.682,33.021s48.969,14.093,58.56,35.679c6.793,15.289,3.379,33.54,10.462,48.702
			c7.907,16.926,26.514,25.682,42.958,34.745c16.444,9.063,33.705,22.505,34.58,41.067c0.587,12.444-6.795,24.106-16.522,31.857
			c-9.728,7.751-21.626,12.262-33.314,16.656c-27.087,10.183-54.174,20.365-81.261,30.548c-10.234,3.847-21.298,7.749-31.952,4.966
			c-12.17-3.178-20.458-14.147-27.547-24.503C24.703,204.76-25.29,98.557-57.131-12.593C-62.759-32.239-69.447-58.936-58.891-78
			c8.555-15.45,17.153-6.718,30.248,0.416C-15.285-70.306-1.918-63.048,11.445-55.779z"/>
		
			<linearGradient id="SVGID_00000016059871797401614990000013590556243519921539_" gradientUnits="userSpaceOnUse" x1="154.3332" y1="190.9416" x2="90.3331" y2="349.1637">
			<stop  offset="0" style="stop-color:#FFFFFF"/>
			<stop  offset="0.221" style="stop-color:#F3F3F3"/>
			<stop  offset="0.6876" style="stop-color:#DEDEDE"/>
			<stop  offset="0.995" style="stop-color:#D6D6D6"/>
		</linearGradient>
		
			<path style="clip-path:url(#SVGID_00000183249068180684460730000006784131179110614684_);fill:url(#SVGID_00000016059871797401614990000013590556243519921539_);" d="
			M-42.475,127.923c25.392,0.086,52.912,0.881,72.785,16.688c19.657,15.634,27.824,43.152,49.041,56.593
			c23.511,14.894,54.086,7.495,80.969,0.289c26.883-7.206,58.353-12.899,80.26,4.267c15.516,12.159,22.153,33.177,37.897,45.04
			c17.576,13.243,41.642,11.899,63.647,12.098c22.006,0.198,47.29,4.516,58.524,23.44c7.531,12.686,6.409,29.051,0.689,42.65
			c-5.719,13.599-15.481,25.034-25.091,36.227c-22.271,25.941-44.542,51.883-66.814,77.824
			c-8.414,9.801-17.655,20.127-30.193,23.231c-14.321,3.545-28.975-3.25-42.052-10.083
			C116.209,392.977,5.534,310.102-89.171,211.806c-16.739-17.374-38.498-41.526-38.22-67.426
			c0.225-20.991,13.953-16.71,31.431-16.638C-78.131,127.815-60.303,127.862-42.475,127.923z"/>
		
			<linearGradient id="SVGID_00000060727092528532062100000002460142488106260657_" gradientUnits="userSpaceOnUse" x1="-650.595" y1="-88.5373" x2="-700.8367" y2="35.671" gradientTransform="matrix(0.6692 -0.7431 0.7431 0.6692 776.2018 -238.1327)">
			<stop  offset="0" style="stop-color:#FFFFFF"/>
			<stop  offset="0.221" style="stop-color:#F3F3F3"/>
			<stop  offset="0.6876" style="stop-color:#DEDEDE"/>
			<stop  offset="0.995" style="stop-color:#D6D6D6"/>
		</linearGradient>
		
			<path style="clip-path:url(#SVGID_00000183249068180684460730000006784131179110614684_);fill:url(#SVGID_00000060727092528532062100000002460142488106260657_);" d="
			M134.878,267.778c13.389-14.767,28.311-30.404,47.971-33.693c19.447-3.253,39.79,6.438,58.777,1.122
			c21.04-5.891,32.786-27.614,42.705-47.081c9.919-19.468,23.13-40.817,44.653-44.578c15.244-2.664,30.992,4.506,46.183,1.554
			c16.959-3.296,28.817-18.041,40.493-30.774c11.676-12.733,27.478-25.214,44.419-21.827c11.356,2.271,20.314,11.523,25.242,22.004
			c4.928,10.48,6.471,22.182,7.952,33.668c3.433,26.62,6.866,53.24,10.299,79.86c1.297,10.057,2.467,20.872-2.31,29.817
			c-5.456,10.217-17.118,15.195-27.973,19.234c-100.428,37.367-206.915,58.392-314.008,62c-18.929,0.638-44.448,0.643-59.412-13.126
			c-12.127-11.159-2.418-16.918,6.806-27.076C116.084,288.522,125.477,278.147,134.878,267.778z"/>
		<g style="clip-path:url(#SVGID_00000183249068180684460730000006784131179110614684_);">
			
				<linearGradient id="SVGID_00000103982471233922174320000003701787570990867647_" gradientUnits="userSpaceOnUse" x1="-569.8422" y1="-2965.2402" x2="-418.0559" y2="-2954.969" gradientTransform="matrix(-0.9822 -0.1877 0.1877 -0.9822 504.6135 -2917.3081)">
				<stop  offset="0.0272" style="stop-color:#B1D7B6"/>
				<stop  offset="0.2127" style="stop-color:#A2CAAB"/>
				<stop  offset="0.5" style="stop-color:#84AF95"/>
				<stop  offset="1" style="stop-color:#3E6755"/>
			</linearGradient>
			<path style="fill:url(#SVGID_00000103982471233922174320000003701787570990867647_);" d="M420.848-7.052
				c-0.795,14.264-3.08,28.255-6.085,42.115c-3.043,13.84-6.83,27.525-11.608,40.863c-4.742,13.341-10.105,26.484-16.534,39.104
				c-6.155,12.763-13.57,24.855-21.238,36.744c-0.152,0.236-0.466,0.304-0.702,0.152c-0.235-0.151-0.293-0.48-0.144-0.715
				c7.553-11.913,14.848-24.015,20.879-36.775c6.306-12.617,11.544-25.744,16.161-39.056c4.653-13.309,8.314-26.953,11.234-40.733
				c2.881-13.769,5.044-27.786,5.715-41.758l0.003-0.061c0.031-0.64,0.575-1.135,1.215-1.104c0.641,0.031,1.135,0.575,1.104,1.215
				L420.848-7.052z"/>
			<g>
				
					<linearGradient id="SVGID_00000022539486337051944780000010010516993943361956_" gradientUnits="userSpaceOnUse" x1="-383.6327" y1="-2898.1541" x2="-462.8014" y2="-2898.1541" gradientTransform="matrix(-0.9822 -0.1877 0.1877 -0.9822 504.6135 -2917.3081)">
					<stop  offset="0.0272" style="stop-color:#B1D7B6"/>
					<stop  offset="0.2127" style="stop-color:#A2CAAB"/>
					<stop  offset="0.5" style="stop-color:#84AF95"/>
					<stop  offset="1" style="stop-color:#3E6755"/>
				</linearGradient>
				<path style="fill:url(#SVGID_00000022539486337051944780000010010516993943361956_);" d="M373.605,1.606
					c11.802-4.054,22.97-6.697,31.3-7.663c8.334-0.986,13.742-0.382,14.181,1.347c0.449,1.77-4.616,4.719-12.606,8.371
					c-8.006,3.626-18.957,8.074-30.753,12.124c-23.589,8.263-41.267,9.809-42.152,6.264c-0.482-1.759,3.732-4.754,10.899-8.393
					C351.654,10.028,361.801,5.662,373.605,1.606z"/>
			</g>
			<g>
				
					<linearGradient id="SVGID_00000056391101268628046360000014532704041978854565_" gradientUnits="userSpaceOnUse" x1="-532.1866" y1="-2905.0847" x2="-463.8696" y2="-2905.0847" gradientTransform="matrix(-0.9822 -0.1877 0.1877 -0.9822 504.6135 -2917.3081)">
					<stop  offset="0.0272" style="stop-color:#B1D7B6"/>
					<stop  offset="0.2127" style="stop-color:#A2CAAB"/>
					<stop  offset="0.5" style="stop-color:#84AF95"/>
					<stop  offset="1" style="stop-color:#3E6755"/>
				</linearGradient>
				<path style="fill:url(#SVGID_00000056391101268628046360000014532704041978854565_);" d="M447.571,31.696
					c-8.246-7.989-16.854-15.631-21.823-22.544c-5.076-6.824-6.717-12.085-5.357-13.157c1.465-1.165,6.061,2.108,12.971,6.926
					c6.787,4.922,16.698,11.236,25.979,20.603c9.327,9.357,14.398,19.772,16.52,27.093c1.138,3.689,1.513,6.732,1.483,8.894
					c-0.017,2.158-0.457,3.436-1.305,3.745c-0.848,0.309-2.142-0.5-3.723-2.179c-0.792-0.839-1.648-1.901-2.571-3.146
					c-1.003-1.204-2.07-2.59-3.18-4.138c-2.271-3.068-4.985-6.601-8.07-10.391C455.32,39.667,451.702,35.74,447.571,31.696z"/>
			</g>
			<g>
				
					<linearGradient id="SVGID_00000051367573185208659740000001208926251206652858_" gradientUnits="userSpaceOnUse" x1="-395.6548" y1="-2914.144" x2="-464.552" y2="-2914.144" gradientTransform="matrix(-0.9822 -0.1877 0.1877 -0.9822 504.6135 -2917.3081)">
					<stop  offset="0.0272" style="stop-color:#B1D7B6"/>
					<stop  offset="0.2127" style="stop-color:#A2CAAB"/>
					<stop  offset="0.5" style="stop-color:#84AF95"/>
					<stop  offset="1" style="stop-color:#3E6755"/>
				</linearGradient>
				<path style="fill:url(#SVGID_00000051367573185208659740000001208926251206652858_);" d="M378.919,22.552
					c10.49-3.946,19.686-7.549,26.415-10.45c6.736-2.823,11.263-4.769,12.578-3.418c1.22,1.206-1.527,6.42-8.164,12.206
					c-6.551,5.845-16.929,11.649-28.153,15.7c-11.24,4.108-20.929,5.969-27.834,6.754c-6.911,0.735-11.153,0.268-11.708-1.457
					c-0.553-1.714,3.292-4.811,10.05-8.235C358.851,30.207,368.431,26.484,378.919,22.552z"/>
			</g>
			<g>
				
					<linearGradient id="SVGID_00000142861881554469723310000017334608104427280020_" gradientUnits="userSpaceOnUse" x1="-525.1656" y1="-2923.6724" x2="-463.8003" y2="-2923.6724" gradientTransform="matrix(-0.9822 -0.1877 0.1877 -0.9822 504.6135 -2917.3081)">
					<stop  offset="0.0272" style="stop-color:#B1D7B6"/>
					<stop  offset="0.2127" style="stop-color:#A2CAAB"/>
					<stop  offset="0.5" style="stop-color:#84AF95"/>
					<stop  offset="1" style="stop-color:#3E6755"/>
				</linearGradient>
				<path style="fill:url(#SVGID_00000142861881554469723310000017334608104427280020_);" d="M432.755,53.735
					c-14.032-19.791-18.557-39.205-15.399-40.652c3.338-1.608,14.921,16.164,28.254,34.377
					c13.187,18.272,22.933,30.375,20.546,33.262c-1.161,1.332-5.905-0.311-12.267-4.917
					C447.533,71.233,439.72,63.576,432.755,53.735z"/>
			</g>
			<g>
				
					<linearGradient id="SVGID_00000181085121669246584090000014517519937198198690_" gradientUnits="userSpaceOnUse" x1="-401.8246" y1="-2944.2087" x2="-465.1327" y2="-2944.2087" gradientTransform="matrix(-0.9822 -0.1877 0.1877 -0.9822 504.6135 -2917.3081)">
					<stop  offset="0.0272" style="stop-color:#B1D7B6"/>
					<stop  offset="0.2127" style="stop-color:#A2CAAB"/>
					<stop  offset="0.5" style="stop-color:#84AF95"/>
					<stop  offset="1" style="stop-color:#3E6755"/>
				</linearGradient>
				<path style="fill:url(#SVGID_00000181085121669246584090000014517519937198198690_);" d="M374.918,50.577
					c9.841-4.794,18.875-8.585,25.673-11.086c6.797-2.469,11.48-3.562,12.552-2.068c1.038,1.434-2.186,5.834-8.468,11.008
					c-6.249,5.2-15.548,10.964-25.647,15.828c-20.255,9.594-35.097,12.876-36.711,9.746c-0.799-1.611,2.333-5.167,8.237-9.434
					C356.446,60.291,365.08,55.368,374.918,50.577z"/>
			</g>
			<g>
				
					<linearGradient id="SVGID_00000077324417545230542260000013113695673514251915_" gradientUnits="userSpaceOnUse" x1="-512.5839" y1="-2952.7595" x2="-464.7123" y2="-2952.7595" gradientTransform="matrix(-0.9822 -0.1877 0.1877 -0.9822 504.6135 -2917.3081)">
					<stop  offset="0.0272" style="stop-color:#B1D7B6"/>
					<stop  offset="0.2127" style="stop-color:#A2CAAB"/>
					<stop  offset="0.5" style="stop-color:#84AF95"/>
					<stop  offset="1" style="stop-color:#3E6755"/>
				</linearGradient>
				<path style="fill:url(#SVGID_00000077324417545230542260000013113695673514251915_);" d="M421.702,79.638
					c-5.037-9.282-8.042-18.392-9.397-25.227c-1.369-6.921-0.91-11.323,0.607-12.204c3.586-0.99,12.478,15.112,22.191,32.537
					c9.464,17.442,15.868,29.395,13.109,31.917c-1.3,1.127-5.456-0.734-10.499-5.486C432.634,96.475,426.711,88.929,421.702,79.638z
					"/>
			</g>
			<g>
				
					<linearGradient id="SVGID_00000181772810813502272500000001169642821450082181_" gradientUnits="userSpaceOnUse" x1="-404.6912" y1="-2972.7898" x2="-462.4399" y2="-2972.7898" gradientTransform="matrix(-0.9822 -0.1877 0.1877 -0.9822 504.6135 -2917.3081)">
					<stop  offset="0.0272" style="stop-color:#B1D7B6"/>
					<stop  offset="0.2127" style="stop-color:#A2CAAB"/>
					<stop  offset="0.5" style="stop-color:#84AF95"/>
					<stop  offset="1" style="stop-color:#3E6755"/>
				</linearGradient>
				<path style="fill:url(#SVGID_00000181772810813502272500000001169642821450082181_);" d="M369.548,78.226
					c8.502-4.088,16.793-7.123,23.246-8.397c6.452-1.313,10.864-0.822,11.434,0.865c0.585,1.732-2.832,4.635-8.342,8.442
					c-5.543,3.767-13.29,8.514-22.073,12.673c-8.742,4.183-16.92,6.615-22.984,7.184c-6.104,0.587-9.83-0.644-10.088-2.376
					c-0.281-1.832,2.949-4.117,8.03-7.22C353.895,86.34,361.039,82.308,369.548,78.226z"/>
			</g>
			<g>
				
					<linearGradient id="SVGID_00000041286588056341856830000008805546156661891496_" gradientUnits="userSpaceOnUse" x1="-499.6058" y1="-2982.4592" x2="-461.4731" y2="-2982.4592" gradientTransform="matrix(-0.9822 -0.1877 0.1877 -0.9822 504.6135 -2917.3081)">
					<stop  offset="0.0272" style="stop-color:#B1D7B6"/>
					<stop  offset="0.2127" style="stop-color:#A2CAAB"/>
					<stop  offset="0.5" style="stop-color:#84AF95"/>
					<stop  offset="1" style="stop-color:#3E6755"/>
				</linearGradient>
				<path style="fill:url(#SVGID_00000041286588056341856830000008805546156661891496_);" d="M407.951,106.209
					c-7.027-17.733-6.897-33.286-3.567-34.256c3.581-1.055,10.636,14.373,17.33,30.665c3.4,8.153,6.044,15.001,7.65,20.1
					c1.6,5.08,2.047,8.533,0.552,9.616c-1.423,1.04-5.103-0.841-9.409-5.434C416.235,122.327,411.463,115.026,407.951,106.209z"/>
			</g>
			<g>
				
					<linearGradient id="SVGID_00000005268981739267376350000003332177239514579892_" gradientUnits="userSpaceOnUse" x1="-403.2416" y1="-3001.2388" x2="-457.9008" y2="-3001.2388" gradientTransform="matrix(-0.9822 -0.1877 0.1877 -0.9822 504.6135 -2917.3081)">
					<stop  offset="0.0272" style="stop-color:#B1D7B6"/>
					<stop  offset="0.2127" style="stop-color:#A2CAAB"/>
					<stop  offset="0.5" style="stop-color:#84AF95"/>
					<stop  offset="1" style="stop-color:#3E6755"/>
				</linearGradient>
				<path style="fill:url(#SVGID_00000005268981739267376350000003332177239514579892_);" d="M361.976,107.096
					c15.999-7.78,30.235-12.916,32.333-9.962c2.085,2.947-10.565,15.298-27.986,23.504c-8.676,4.099-16.766,6.122-22.661,6.405
					c-2.936,0.18-5.324-0.087-6.987-0.63c-1.653-0.511-2.566-1.233-2.703-2.125c-0.258-1.881,2.957-4.021,7.972-6.887
					C346.988,114.547,353.957,110.993,361.976,107.096z"/>
			</g>
			<g>
				
					<linearGradient id="SVGID_00000054234873768656955520000000733016948159522205_" gradientUnits="userSpaceOnUse" x1="-485.5624" y1="-3012.9517" x2="-454.4438" y2="-3012.9517" gradientTransform="matrix(-0.9822 -0.1877 0.1877 -0.9822 504.6135 -2917.3081)">
					<stop  offset="0.0272" style="stop-color:#B1D7B6"/>
					<stop  offset="0.2127" style="stop-color:#A2CAAB"/>
					<stop  offset="0.5" style="stop-color:#84AF95"/>
					<stop  offset="1" style="stop-color:#3E6755"/>
				</linearGradient>
				<path style="fill:url(#SVGID_00000054234873768656955520000000733016948159522205_);" d="M392.351,133.192
					c-5.23-16.503-3.773-30.972-0.265-31.577c3.578-0.646,9.17,13.524,14.228,28.914c4.948,15.399,7.118,26.465,3.896,28.202
					C407.063,160.49,397.491,149.759,392.351,133.192z"/>
			</g>
			<g>
				
					<linearGradient id="SVGID_00000048497552641711110070000013940862987672375175_" gradientUnits="userSpaceOnUse" x1="-414.8958" y1="-3037.3682" x2="-451.8428" y2="-3037.3682" gradientTransform="matrix(-0.9822 -0.1877 0.1877 -0.9822 504.6135 -2917.3081)">
					<stop  offset="0.0272" style="stop-color:#B1D7B6"/>
					<stop  offset="0.2127" style="stop-color:#A2CAAB"/>
					<stop  offset="0.5" style="stop-color:#84AF95"/>
					<stop  offset="1" style="stop-color:#3E6755"/>
				</linearGradient>
				<path style="fill:url(#SVGID_00000048497552641711110070000013940862987672375175_);" d="M357.023,144.893
					c11.761-12.393,21.68-22.801,24.953-21.183c1.561,0.835,1.034,5.392-1.713,11.571c-2.715,6.171-7.715,13.829-14.301,20.659
					c-6.538,6.873-13.406,11.357-18.698,13.582c-5.346,2.217-9.023,2.185-9.869,0.643c-0.892-1.617,1.275-4.797,4.918-9.113
					C345.992,156.748,351.153,151.152,357.023,144.893z"/>
			</g>
		</g>
		<g style="clip-path:url(#SVGID_00000183249068180684460730000006784131179110614684_);">
			
				<linearGradient id="SVGID_00000072966601076686062440000016636214920718492812_" gradientUnits="userSpaceOnUse" x1="1298.4077" y1="-2523.2466" x2="1422.6929" y2="-2514.8362" gradientTransform="matrix(-0.3341 0.9425 -0.9425 -0.3341 -1870.538 -2030.3696)">
				<stop  offset="0.0272" style="stop-color:#B1D7B6"/>
				<stop  offset="0.2127" style="stop-color:#A2CAAB"/>
				<stop  offset="0.5" style="stop-color:#84AF95"/>
				<stop  offset="1" style="stop-color:#3E6755"/>
			</linearGradient>
			<path style="fill:url(#SVGID_00000072966601076686062440000016636214920718492812_);" d="M-25.289,93.204
				c11.446,2.41,22.487,5.992,33.332,10.141c10.824,4.177,21.431,8.937,31.634,14.456c10.21,5.49,20.183,11.458,29.601,18.224
				c9.567,6.562,18.436,14.061,27.109,21.74c0.172,0.152,0.188,0.415,0.036,0.587c-0.151,0.171-0.424,0.177-0.596,0.028
				c-8.706-7.588-17.597-14.991-27.178-21.453c-9.43-6.667-19.406-12.532-29.609-17.917c-10.196-5.414-20.785-10.067-31.576-14.137
				c-10.787-4.037-21.864-7.524-33.089-9.797l-0.049-0.01c-0.514-0.104-0.847-0.606-0.743-1.12c0.104-0.515,0.606-0.847,1.12-0.743
				L-25.289,93.204z"/>
			<g>
				
					<linearGradient id="SVGID_00000115502890624796320360000017577631881032440479_" gradientUnits="userSpaceOnUse" x1="1450.8755" y1="-2468.3179" x2="1386.054" y2="-2468.3179" gradientTransform="matrix(-0.3341 0.9425 -0.9425 -0.3341 -1870.538 -2030.3696)">
					<stop  offset="0.0272" style="stop-color:#B1D7B6"/>
					<stop  offset="0.2127" style="stop-color:#A2CAAB"/>
					<stop  offset="0.5" style="stop-color:#84AF95"/>
					<stop  offset="1" style="stop-color:#3E6755"/>
				</linearGradient>
				<path style="fill:url(#SVGID_00000115502890624796320360000017577631881032440479_);" d="M-24.132,132.512
					c-1.82-10.054-2.576-19.42-2.325-26.281c0.234-6.867,1.393-11.169,2.846-11.311c1.488-0.145,3.248,4.321,5.214,11.239
					c1.943,6.929,4.187,16.343,6.004,26.391c3.767,20.115,2.828,34.614-0.151,34.891c-1.483,0.172-3.385-3.609-5.443-9.861
					C-20.034,151.322-22.311,142.568-24.132,132.512z"/>
			</g>
			<g>
				
					<linearGradient id="SVGID_00000027595061697364035210000015631366907968385932_" gradientUnits="userSpaceOnUse" x1="1329.2437" y1="-2473.9929" x2="1385.1793" y2="-2473.9929" gradientTransform="matrix(-0.3341 0.9425 -0.9425 -0.3341 -1870.538 -2030.3696)">
					<stop  offset="0.0272" style="stop-color:#B1D7B6"/>
					<stop  offset="0.2127" style="stop-color:#A2CAAB"/>
					<stop  offset="0.5" style="stop-color:#84AF95"/>
					<stop  offset="1" style="stop-color:#3E6755"/>
				</linearGradient>
				<path style="fill:url(#SVGID_00000027595061697364035210000015631366907968385932_);" d="M9.382,76.375
					C1.895,82.06-5.356,88.08-11.566,91.245c-6.152,3.263-10.613,3.94-11.312,2.706c-0.761-1.33,2.456-4.645,7.212-9.64
					c4.825-4.884,11.162-12.122,19.893-18.474c8.728-6.39,17.786-9.204,23.973-10.015c3.126-0.464,5.635-0.391,7.382-0.098
					c1.744,0.281,2.725,0.795,2.869,1.52c0.145,0.724-0.67,1.672-2.224,2.744c-0.778,0.537-1.743,1.099-2.865,1.691
					c-1.098,0.663-2.353,1.355-3.743,2.061c-2.764,1.458-5.96,3.217-9.41,5.244C16.793,71.09,13.167,73.533,9.382,76.375z"/>
			</g>
			<g>
				
					<linearGradient id="SVGID_00000111900776572115296980000016603645326591958965_" gradientUnits="userSpaceOnUse" x1="1441.0323" y1="-2481.4099" x2="1384.6208" y2="-2481.4099" gradientTransform="matrix(-0.3341 0.9425 -0.9425 -0.3341 -1870.538 -2030.3696)">
					<stop  offset="0.0272" style="stop-color:#B1D7B6"/>
					<stop  offset="0.2127" style="stop-color:#A2CAAB"/>
					<stop  offset="0.5" style="stop-color:#84AF95"/>
					<stop  offset="1" style="stop-color:#3E6755"/>
				</linearGradient>
				<path style="fill:url(#SVGID_00000111900776572115296980000016603645326591958965_);" d="M-6.521,130.806
					c-1.895-8.979-3.672-16.868-5.186-22.673c-1.45-5.801-2.465-9.706-1.208-10.603c1.127-0.838,5.007,2.031,8.868,8.119
					c3.92,6.026,7.332,15.144,9.22,24.73c1.932,9.606,2.239,17.678,2.019,23.364c-0.261,5.684-1.164,9.06-2.629,9.295
					c-1.456,0.235-3.486-3.26-5.421-9.154C-2.811,147.996-4.638,139.782-6.521,130.806z"/>
			</g>
			<g>
				
					<linearGradient id="SVGID_00000054243468808227215070000002449335570543711675_" gradientUnits="userSpaceOnUse" x1="1334.9924" y1="-2489.2119" x2="1385.2363" y2="-2489.2119" gradientTransform="matrix(-0.3341 0.9425 -0.9425 -0.3341 -1870.538 -2030.3696)">
					<stop  offset="0.0272" style="stop-color:#B1D7B6"/>
					<stop  offset="0.2127" style="stop-color:#A2CAAB"/>
					<stop  offset="0.5" style="stop-color:#84AF95"/>
					<stop  offset="1" style="stop-color:#3E6755"/>
				</linearGradient>
				<path style="fill:url(#SVGID_00000054243468808227215070000002449335570543711675_);" d="M25.384,91.096
					C7.628,100.002-8.645,101.26-9.425,98.524c-0.888-2.901,14.93-10.075,31.322-18.61c16.422-8.41,27.424-14.799,29.465-12.509
					c0.935,1.104-0.983,4.74-5.498,9.319C41.377,81.303,34.211,86.678,25.384,91.096z"/>
			</g>
			<g>
				
					<linearGradient id="SVGID_00000133518842540588331760000017905162939486508432_" gradientUnits="userSpaceOnUse" x1="1435.981" y1="-2506.0261" x2="1384.1455" y2="-2506.0261" gradientTransform="matrix(-0.3341 0.9425 -0.9425 -0.3341 -1870.538 -2030.3696)">
					<stop  offset="0.0272" style="stop-color:#B1D7B6"/>
					<stop  offset="0.2127" style="stop-color:#A2CAAB"/>
					<stop  offset="0.5" style="stop-color:#84AF95"/>
					<stop  offset="1" style="stop-color:#3E6755"/>
				</linearGradient>
				<path style="fill:url(#SVGID_00000133518842540588331760000017905162939486508432_);" d="M15.665,137.515
					c-2.661-8.559-4.61-16.34-5.792-22.151c-1.156-5.807-1.461-9.732-0.12-10.415c1.29-0.663,4.451,2.491,7.86,8.217
					c3.434,5.702,6.948,13.942,9.634,22.718c5.257,17.582,6.074,30,3.341,30.919c-1.403,0.447-3.893-2.529-6.615-7.835
					C21.239,153.668,18.325,146.07,15.665,137.515z"/>
			</g>
			<g>
				
					<linearGradient id="SVGID_00000009559709668447899110000003748642912092425638_" gradientUnits="userSpaceOnUse" x1="1345.2943" y1="-2513.0276" x2="1384.4897" y2="-2513.0276" gradientTransform="matrix(-0.3341 0.9425 -0.9425 -0.3341 -1870.538 -2030.3696)">
					<stop  offset="0.0272" style="stop-color:#B1D7B6"/>
					<stop  offset="0.2127" style="stop-color:#A2CAAB"/>
					<stop  offset="0.5" style="stop-color:#84AF95"/>
					<stop  offset="1" style="stop-color:#3E6755"/>
				</linearGradient>
				<path style="fill:url(#SVGID_00000009559709668447899110000003748642912092425638_);" d="M44.98,103.25
					c-8.136,2.927-15.882,4.23-21.581,4.481c-5.771,0.25-9.277-0.666-9.802-2.003c-0.357-3.025,13.776-8.228,29.082-13.93
					c15.289-5.499,25.756-9.202,27.456-6.657c0.751,1.191-1.27,4.325-5.74,7.818C59.961,96.487,53.119,100.347,44.98,103.25z"/>
			</g>
			<g>
				
					<linearGradient id="SVGID_00000037663979653069725620000003237084913935761076_" gradientUnits="userSpaceOnUse" x1="1433.6339" y1="-2529.4275" x2="1386.3506" y2="-2529.4275" gradientTransform="matrix(-0.3341 0.9425 -0.9425 -0.3341 -1870.538 -2030.3696)">
					<stop  offset="0.0272" style="stop-color:#B1D7B6"/>
					<stop  offset="0.2127" style="stop-color:#A2CAAB"/>
					<stop  offset="0.5" style="stop-color:#84AF95"/>
					<stop  offset="1" style="stop-color:#3E6755"/>
				</linearGradient>
				<path style="fill:url(#SVGID_00000037663979653069725620000003237084913935761076_);" d="M37.378,145.286
					c-2.256-7.387-3.685-14.473-3.917-19.854c-0.264-5.384,0.68-8.895,2.116-9.147c1.474-0.259,3.401,2.866,5.799,7.797
					c2.362,4.952,5.244,11.811,7.523,19.435c2.303,7.593,3.258,14.513,2.968,19.492c-0.281,5.013-1.739,7.876-3.172,7.87
					c-1.518,0-2.967-2.896-4.849-7.394C42.006,158.959,39.627,152.678,37.378,145.286z"/>
			</g>
			<g>
				
					<linearGradient id="SVGID_00000024697796345950394870000015353482974398623637_" gradientUnits="userSpaceOnUse" x1="1355.9205" y1="-2537.345" x2="1387.1423" y2="-2537.345" gradientTransform="matrix(-0.3341 0.9425 -0.9425 -0.3341 -1870.538 -2030.3696)">
					<stop  offset="0.0272" style="stop-color:#B1D7B6"/>
					<stop  offset="0.2127" style="stop-color:#A2CAAB"/>
					<stop  offset="0.5" style="stop-color:#84AF95"/>
					<stop  offset="1" style="stop-color:#3E6755"/>
				</linearGradient>
				<path style="fill:url(#SVGID_00000024697796345950394870000015353482974398623637_);" d="M64.782,117.67
					c-15.223,3.491-27.794,1.46-28.167-1.356c-0.41-3.029,12.95-6.828,26.965-10.228c7.02-1.742,12.889-3.034,17.215-3.702
					c4.309-0.666,7.16-0.6,7.851,0.744c0.665,1.281-1.313,4.026-5.563,6.942C78.852,112.961,72.353,115.919,64.782,117.67z"/>
			</g>
			<g>
				
					<linearGradient id="SVGID_00000041988106725280193110000003470004070590593164_" gradientUnits="userSpaceOnUse" x1="1434.8212" y1="-2552.7207" x2="1390.0673" y2="-2552.7207" gradientTransform="matrix(-0.3341 0.9425 -0.9425 -0.3341 -1870.538 -2030.3696)">
					<stop  offset="0.0272" style="stop-color:#B1D7B6"/>
					<stop  offset="0.2127" style="stop-color:#A2CAAB"/>
					<stop  offset="0.5" style="stop-color:#84AF95"/>
					<stop  offset="1" style="stop-color:#3E6755"/>
				</linearGradient>
				<path style="fill:url(#SVGID_00000041988106725280193110000003470004070590593164_);" d="M59.805,154.989
					c-4.315-13.913-6.709-26.07-4.058-27.402c2.644-1.322,11.073,10.445,15.557,25.561c2.243,7.529,2.878,14.327,2.377,19.134
					c-0.218,2.398-0.729,4.298-1.375,5.577c-0.618,1.275-1.315,1.924-2.054,1.924c-1.554-0.024-2.889-2.891-4.586-7.305
					C63.98,168.042,61.966,161.962,59.805,154.989z"/>
			</g>
			<g>
				
					<linearGradient id="SVGID_00000093166958720921270080000016378209560156135586_" gradientUnits="userSpaceOnUse" x1="1367.4191" y1="-2562.3113" x2="1392.8978" y2="-2562.3113" gradientTransform="matrix(-0.3341 0.9425 -0.9425 -0.3341 -1870.538 -2030.3696)">
					<stop  offset="0.0272" style="stop-color:#B1D7B6"/>
					<stop  offset="0.2127" style="stop-color:#A2CAAB"/>
					<stop  offset="0.5" style="stop-color:#84AF95"/>
					<stop  offset="1" style="stop-color:#3E6755"/>
				</linearGradient>
				<path style="fill:url(#SVGID_00000093166958720921270080000016378209560156135586_);" d="M84.688,133.638
					c-14.005,2.189-25.535-0.782-25.589-3.696c-0.079-2.975,12.081-5.747,25.164-7.934c13.076-2.098,22.3-2.483,23.308,0.34
					C108.603,125.111,98.733,131.529,84.688,133.638z"/>
			</g>
			<g>
				
					<linearGradient id="SVGID_00000181062286019487177910000008664473985114264231_" gradientUnits="userSpaceOnUse" x1="1425.2792" y1="-2582.3027" x2="1395.0277" y2="-2582.3027" gradientTransform="matrix(-0.3341 0.9425 -0.9425 -0.3341 -1870.538 -2030.3696)">
					<stop  offset="0.0272" style="stop-color:#B1D7B6"/>
					<stop  offset="0.2127" style="stop-color:#A2CAAB"/>
					<stop  offset="0.5" style="stop-color:#84AF95"/>
					<stop  offset="1" style="stop-color:#3E6755"/>
				</linearGradient>
				<path style="fill:url(#SVGID_00000181062286019487177910000008664473985114264231_);" d="M89.783,163.68
					c-8.573-11.054-15.769-20.371-14.054-22.819c0.869-1.16,4.492-0.169,9.153,2.819c4.659,2.961,10.237,7.957,14.949,14.133
					c4.753,6.143,7.531,12.257,8.677,16.815c1.132,4.602,0.651,7.573-0.702,8.067c-1.419,0.522-3.724-1.626-6.766-5.109
					C98.011,174.075,94.122,169.205,89.783,163.68z"/>
			</g>
		</g>
	</g>
	<g>
		
			<radialGradient id="SVGID_00000168831071655403957690000000309759030829157513_" cx="66.0761" cy="10982.0332" r="99.4045" gradientTransform="matrix(1.232 0 0 0.1464 144.0498 -1347.1594)" gradientUnits="userSpaceOnUse">
			<stop  offset="0.703" style="stop-color:#ADADAD"/>
			<stop  offset="0.7127" style="stop-color:#B5B5B5"/>
			<stop  offset="0.7542" style="stop-color:#D0D0D0"/>
			<stop  offset="0.7995" style="stop-color:#E5E5E5"/>
			<stop  offset="0.8498" style="stop-color:#F4F4F4"/>
			<stop  offset="0.9091" style="stop-color:#FCFCFC"/>
			<stop  offset="1" style="stop-color:#FFFFFF"/>
		</radialGradient>
		
			<ellipse style="fill:url(#SVGID_00000168831071655403957690000000309759030829157513_);" cx="225.456" cy="260.61" rx="122.467" ry="14.553"/>
		<g>
			
				<linearGradient id="SVGID_00000049206598819605003320000000419892833953290135_" gradientUnits="userSpaceOnUse" x1="130.4078" y1="236.0687" x2="317.2529" y2="236.0687">
				<stop  offset="0" style="stop-color:#FFFFFF"/>
				<stop  offset="0.0892" style="stop-color:#E9E9E9"/>
				<stop  offset="0.2234" style="stop-color:#C2C2C2"/>
				<stop  offset="0.3899" style="stop-color:#C2C2C2"/>
				<stop  offset="0.6138" style="stop-color:#DEDEDE"/>
				<stop  offset="0.8523" style="stop-color:#F6F6F6"/>
				<stop  offset="1" style="stop-color:#FFFFFF"/>
			</linearGradient>
			<path style="fill:url(#SVGID_00000049206598819605003320000000419892833953290135_);" d="M130.408,202.709v55.886
				c0,5.976,41.834,10.833,93.423,10.833c51.602,0,93.423-4.857,93.423-10.833v-55.886H130.408z"/>
			<ellipse style="fill:#FFFFFF;" cx="223.836" cy="202.709" rx="93.423" ry="11.804"/>
		</g>
	</g>
</g>
</svg>
